{
  "accessors": [
    {
      "bufferView": 2,
      "componentType": 5126,
      "count": 1389,
      "max": [
        1.3831520080566406,
        0.03675729036331177,
        2.2050650119781494
      ],
      "min": [
        -1.3831520080566406,
        -0.20324300229549408,
        -0.5966095924377441
      ],
      "type": "VEC3"
    },
    {
      "bufferView": 2,
      "byteOffset": 16668,
      "componentType": 5126,
      "count": 1389,
      "max": [
        0.9999354481697083,
        1.0,
        0.9868789315223694
      ],
      "min": [
        -0.9999354481697083,
        -1.0,
        -1.0
      ],
      "type": "VEC3"
    },
    {
      "bufferView": 1,
      "componentType": 5126,
      "count": 1389,
      "max": [
        0.9786670804023743,
        0.9624268412590027
      ],
      "min": [
        0.5280966758728027,
        0.04976363480091095
      ],
      "type": "VEC2"
    },
    {
      "bufferView": 0,
      "componentType": 5125,
      "count": 2136,
      "type": "SCALAR"
    },
    {
      "bufferView": 2,
      "byteOffset": 33336,
      "componentType": 5126,
      "count": 16,
      "max": [
        1.4754745960235596,
        1.041988492012024,
        4.195375442504883
      ],
      "min": [
        -1.4754745960235596,
        -1.041988492012024,
        0.10703519731760025
      ],
      "type": "VEC3"
    },
    {
      "bufferView": 2,
      "byteOffset": 33528,
      "componentType": 5126,
      "count": 16,
      "max": [
        1.0,
        0.7071068286895752,
        2.1609233513686377e-08
      ],
      "min": [
        0.0,
        -1.0,
        8.12578182518564e-09
      ],
      "type": "VEC3"
    },
    {
      "bufferView": 1,
      "byteOffset": 11112,
      "componentType": 5126,
      "count": 16,
      "max": [
        0.9886953234672546,
        0.990885853767395
      ],
      "min": [
        0.008685129694640636,
        0.00911414623260498
      ],
      "type": "VEC2"
    },
    {
      "bufferView": 0,
      "byteOffset": 8544,
      "componentType": 5125,
      "count": 24,
      "type": "SCALAR"
    },
    {
      "bufferView": 2,
      "byteOffset": 33720,
      "componentType": 5126,
      "count": 17874,
      "max": [
        1.1929187774658203,
        1.1929187774658203,
        0.21060775220394135
      ],
      "min": [
        -1.1929187774658203,
        -1.1929187774658203,
        0.0
      ],
      "type": "VEC3"
    },
    {
      "bufferView": 2,
      "byteOffset": 248208,
      "componentType": 5126,
      "count": 17874,
      "max": [
        1.0,
        1.0,
        1.0
      ],
      "min": [
        -1.0,
        -1.0,
        -1.0
      ],
      "type": "VEC3"
    },
    {
      "bufferView": 1,
      "byteOffset": 11240,
      "componentType": 5126,
      "count": 17874,
      "max": [
        0.9921000003814697,
        0.9848321676254272
      ],
      "min": [
        0.027662232518196106,
        0.008274514228105545
      ],
      "type": "VEC2"
    },
    {
      "bufferView": 0,
      "byteOffset": 8640,
      "componentType": 5125,
      "count": 100992,
      "type": "SCALAR"
    },
    {
      "bufferView": 3,
      "componentType": 5126,
      "count": 2,
      "max": [
        4.166666507720947
      ],
      "min": [
        0.0416666679084301
      ],
      "type": "SCALAR"
    },
    {
      "bufferView": 4,
      "componentType": 5126,
      "count": 2,
      "max": [
        0.0,
        344.1620178222656,
        -7.185410022735596
      ],
      "min": [
        0.0,
        344.1620178222656,
        -7.185410022735596
      ],
      "type": "VEC3"
    },
    {
      "bufferView": 3,
      "byteOffset": 8,
      "componentType": 5126,
      "count": 2,
      "max": [
        4.166666507720947
      ],
      "min": [
        0.0416666679084301
      ],
      "type": "SCALAR"
    },
    {
      "bufferView": 4,
      "byteOffset": 24,
      "componentType": 5126,
      "count": 2,
      "max": [
        100.0,
        100.0,
        100.0
      ],
      "min": [
        100.0,
        100.0,
        100.0
      ],
      "type": "VEC3"
    },
    {
      "bufferView": 3,
      "byteOffset": 16,
      "componentType": 5126,
      "count": 197,
      "max": [
        4.166666507720947
      ],
      "min": [
        0.0416666679084301
      ],
      "type": "SCALAR"
    },
    {
      "bufferView": 5,
      "componentType": 5126,
      "count": 197,
      "max": [
        0.49110081791877747,
        0.7070971727371216,
        0.7070972323417664,
        0.7071067094802856
      ],
      "min": [
        -0.7071068286895752,
        -0.4999857544898987,
        -0.49998581409454346,
        -0.4911007285118103
      ],
      "type": "VEC4"
    },
    {
      "bufferView": 3,
      "byteOffset": 804,
      "componentType": 5126,
      "count": 2,
      "max": [
        4.166666507720947
      ],
      "min": [
        0.0416666679084301
      ],
      "type": "SCALAR"
    },
    {
      "bufferView": 4,
      "byteOffset": 48,
      "componentType": 5126,
      "count": 2,
      "max": [
        0.0,
        0.0,
        0.0
      ],
      "min": [
        0.0,
        0.0,
        0.0
      ],
      "type": "VEC3"
    },
    {
      "bufferView": 3,
      "byteOffset": 812,
      "componentType": 5126,
      "count": 2,
      "max": [
        4.166666507720947
      ],
      "min": [
        0.0416666679084301
      ],
      "type": "SCALAR"
    },
    {
      "bufferView": 4,
      "byteOffset": 72,
      "componentType": 5126,
      "count": 2,
      "max": [
        100.0,
        100.0,
        100.0
      ],
      "min": [
        100.0,
        100.0,
        100.0
      ],
      "type": "VEC3"
    },
    {
      "bufferView": 3,
      "byteOffset": 820,
      "componentType": 5126,
      "count": 197,
      "max": [
        4.166666507720947
      ],
      "min": [
        0.0416666679084301
      ],
      "type": "SCALAR"
    },
    {
      "bufferView": 5,
      "byteOffset": 3152,
      "componentType": 5126,
      "count": 197,
      "max": [
        0.49110081791877747,
        0.7070971727371216,
        0.7070972323417664,
        0.7071067094802856
      ],
      "min": [
        -0.7071068286895752,
        -0.4999857544898987,
        -0.49998581409454346,
        -0.4911007285118103
      ],
      "type": "VEC4"
    }
  ],
  "animations": [
    {
      "channels": [
        {
          "sampler": 0,
          "target": {
            "node": 4,
            "path": "translation"
          }
        },
        {
          "sampler": 1,
          "target": {
            "node": 4,
            "path": "scale"
          }
        },
        {
          "sampler": 2,
          "target": {
            "node": 4,
            "path": "rotation"
          }
        },
        {
          "sampler": 3,
          "target": {
            "node": 6,
            "path": "translation"
          }
        },
        {
          "sampler": 4,
          "target": {
            "node": 6,
            "path": "scale"
          }
        },
        {
          "sampler": 5,
          "target": {
            "node": 6,
            "path": "rotation"
          }
        }
      ],
      "name": "Scene",
      "samplers": [
        {
          "input": 12,
          "interpolation": "LINEAR",
          "output": 13
        },
        {
          "input": 14,
          "interpolation": "LINEAR",
          "output": 15
        },
        {
          "input": 16,
          "interpolation": "LINEAR",
          "output": 17
        },
        {
          "input": 18,
          "interpolation": "LINEAR",
          "output": 19
        },
        {
          "input": 20,
          "interpolation": "LINEAR",
          "output": 21
        },
        {
          "input": 22,
          "interpolation": "LINEAR",
          "output": 23
        }
      ]
    }
  ],
  "asset": {
    "extras": {
      "author": "KangaroOz 3D (https://sketchfab.com/KangaroOz-3D)",
      "license": "CC-BY-4.0 (http://creativecommons.org/licenses/by/4.0/)",
      "source": "https://sketchfab.com/3d-models/hologram-9860e2270f1245698995adce759c187f",
      "title": "Hologram"
    },
    "generator": "Sketchfab-12.66.0",
    "version": "2.0"
  },
  "bufferViews": [
    {
      "buffer": 0,
      "byteLength": 412608,
      "name": "floatBufferViews",
      "target": 34963
    },
    {
      "buffer": 0,
      "byteLength": 154232,
      "byteOffset": 412608,
      "byteStride": 8,
      "name": "floatBufferViews",
      "target": 34962
    },
    {
      "buffer": 0,
      "byteLength": 462696,
      "byteOffset": 566840,
      "byteStride": 12,
      "name": "floatBufferViews",
      "target": 34962
    },
    {
      "buffer": 0,
      "byteLength": 1608,
      "byteOffset": 1029536,
      "name": "floatBufferViews"
    },
    {
      "buffer": 0,
      "byteLength": 96,
      "byteOffset": 1031144,
      "byteStride": 12,
      "name": "floatBufferViews"
    },
    {
      "buffer": 0,
      "byteLength": 6304,
      "byteOffset": 1031240,
      "byteStride": 16,
      "name": "floatBufferViews"
    }
  ],
  "buffers": [
    {
      "byteLength": 1037544,
      "uri": "scene.bin"
    }
  ],
  "images": [
    {
      "uri": "textures/Hologram-object_baseColor.png"
    },
    {
      "uri": "textures/Hologram-object_emissive.jpeg"
    },
    {
      "uri": "textures/Hologram-lights_baseColor.png"
    },
    {
      "uri": "textures/Hologram-lights_emissive.jpeg"
    },
    {
      "uri": "textures/Metal-part_baseColor.jpeg"
    },
    {
      "uri": "textures/Metal-part_metallicRoughness.png"
    }
  ],
  "materials": [
    {
      "alphaMode": "BLEND",
      "doubleSided": true,
      "emissiveFactor": [
        1.0,
        1.0,
        1.0
      ],
      "emissiveTexture": {
        "index": 1
      },
      "name": "Hologram-object",
      "pbrMetallicRoughness": {
        "baseColorFactor": [
          1.0,
          1.0,
          1.0,
          0.1
        ],
        "baseColorTexture": {
          "index": 0
        },
        "metallicFactor": 0.0
      }
    },
    {
      "alphaMode": "BLEND",
      "doubleSided": true,
      "emissiveFactor": [
        1.0,
        1.0,
        1.0
      ],
      "emissiveTexture": {
        "index": 3
      },
      "name": "Hologram-lights",
      "pbrMetallicRoughness": {
        "baseColorFactor": [
          1.0,
          1.0,
          1.0,
          0.22
        ],
        "baseColorTexture": {
          "index": 2
        },
        "metallicFactor": 0.0
      }
    },
    {
      "doubleSided": true,
      "name": "Metal-part",
      "pbrMetallicRoughness": {
        "baseColorTexture": {
          "index": 4
        },
        "metallicRoughnessTexture": {
          "index": 5
        }
      }
    }
  ],
  "meshes": [
    {
      "name": "Suzanne_Hologram-object_0",
      "primitives": [
        {
          "attributes": {
            "NORMAL": 1,
            "POSITION": 0,
            "TEXCOORD_0": 2
          },
          "indices": 3,
          "material": 0,
          "mode": 4
        }
      ]
    },
    {
      "name": "Plane_Hologram-lights_0",
      "primitives": [
        {
          "attributes": {
            "NORMAL": 5,
            "POSITION": 4,
            "TEXCOORD_0": 6
          },
          "indices": 7,
          "material": 1,
          "mode": 4
        }
      ]
    },
    {
      "name": "Circle_Metal-part_0",
      "primitives": [
        {
          "attributes": {
            "NORMAL": 9,
            "POSITION": 8,
            "TEXCOORD_0": 10
          },
          "indices": 11,
          "material": 2,
          "mode": 4
        }
      ]
    }
  ],
  "nodes": [
    {
      "children": [
        1
      ],
      "matrix": [
        1.0,
        0.0,
        0.0,
        0.0,
        0.0,
        2.220446049250313e-16,
        -1.0,
        0.0,
        0.0,
        1.0,
        2.220446049250313e-16,
        0.0,
        0.0,
        0.0,
        0.0,
        1.0
      ],
      "name": "Sketchfab_model"
    },
    {
      "children": [
        2
      ],
      "matrix": [
        1.0,
        0.0,
        0.0,
        0.0,
        0.0,
        0.0,
        1.0,
        0.0,
        0.0,
        -1.0,
        0.0,
        0.0,
        0.0,
        0.0,
        0.0,
        1.0
      ],
      "name": "c3ca773633b94848aca387339e4af0dc.fbx"
    },
    {
      "children": [
        3
      ],
      "name": "Object_2"
    },
    {
      "children": [
        4,
        6,
        8,
        10,
        13
      ],
      "name": "RootNode"
    },
    {
      "children": [
        5
      ],
      "name": "Suzanne",
      "rotation": [
        -0.7071068286895752,
        0.0,
        0.0,
        0.7071067094802856
      ],
      "scale": [
        100.0,
        100.0,
        100.0
      ],
      "translation": [
        0.0,
        344.1620178222656,
        -7.185410022735596
      ]
    },
    {
      "mesh": 0,
      "name": "Suzanne_Hologram-object_0"
    },
    {
      "children": [
        7
      ],
      "name": "Plane",
      "rotation": [
        -0.7071068286895752,
        0.0,
        0.0,
        0.7071067094802856
      ],
      "scale": [
        100.0,
        100.0,
        100.0
      ]
    },
    {
      "mesh": 1,
      "name": "Plane_Hologram-lights_0"
    },
    {
      "children": [
        9
      ],
      "name": "Circle",
      "rotation": [
        -0.7071068286895752,
        0.0,
        0.0,
        0.7071067094802856
      ],
      "scale": [
        100.0,
        100.0,
        100.0
      ]
    },
    {
      "mesh": 2,
      "name": "Circle_Metal-part_0"
    },
    {
      "children": [
        11
      ],
      "name": "Lamp",
      "rotation": [
        0.16907571256160736,
        0.7558803558349609,
        -0.2721713185310364,
        0.5709474682807922
      ],
      "scale": [
        100.00000762939453,
        100.0,
        100.0
      ],
      "translation": [
        407.6245422363281,
        590.38623046875,
        -100.54539489746094
      ]
    },
    {
      "children": [
        12
      ],
      "matrix": [
        1.0,
        0.0,
        0.0,
        0.0,
        0.0,
        2.220446049250313e-16,
        1.0,
        0.0,
        0.0,
        -1.0,
        2.220446049250313e-16,
        0.0,
        0.0,
        0.0,
        0.0,
        1.0
      ],
      "name": "Object_11"
    },
    {
      "name": "Object_12"
    },
    {
      "children": [
        14
      ],
      "name": "Camera",
      "rotation": [
        -0.21061135828495026,
        0.9052400588989258,
        -0.08928164094686508,
        0.358067125082016
      ],
      "scale": [
        100.0,
        100.0,
        100.0
      ],
      "translation": [
        748.1131591796875,
        534.3665161132813,
        650.7639770507813
      ]
    },
    {
      "name": "Object_14"
    }
  ],
  "samplers": [
    {
      "magFilter": 9729,
      "minFilter": 9987,
      "wrapS": 10497,
      "wrapT": 10497
    }
  ],
  "scene": 0,
  "scenes": [
    {
      "name": "Sketchfab_Scene",
      "nodes": [
        0
      ]
    }
  ],
  "textures": [
    {
      "sampler": 0,
      "source": 0
    },
    {
      "sampler": 0,
      "source": 1
    },
    {
      "sampler": 0,
      "source": 2
    },
    {
      "sampler": 0,
      "source": 3
    },
    {
      "sampler": 0,
      "source": 4
    },
    {
      "sampler": 0,
      "source": 5
    }
  ]
}
